<?xml version="1.0" encoding="UTF-8" standalone="no"?>
<!-- Created with Inkscape (http://www.inkscape.org/) -->

<svg
   version="1.1"
   id="svg2"
   xml:space="preserve"
   width="500"
   height="132.52672"
   viewBox="0 0 499.99999 132.52672"
   sodipodi:docname="Humio_small_purple.svg"
   inkscape:version="1.1.1 (3bf5ae0d25, 2021-09-20)"
   xmlns:inkscape="http://www.inkscape.org/namespaces/inkscape"
   xmlns:sodipodi="http://sodipodi.sourceforge.net/DTD/sodipodi-0.dtd"
   xmlns="http://www.w3.org/2000/svg"
   xmlns:svg="http://www.w3.org/2000/svg"><defs
     id="defs6" /><sodipodi:namedview
     id="namedview4"
     pagecolor="#ffffff"
     bordercolor="#666666"
     borderopacity="1.0"
     inkscape:pageshadow="2"
     inkscape:pageopacity="0.0"
     inkscape:pagecheckerboard="0"
     showgrid="false"
     fit-margin-top="0"
     fit-margin-left="0"
     fit-margin-right="0"
     fit-margin-bottom="0"
     inkscape:zoom="3.3369407"
     inkscape:cx="166.46985"
     inkscape:cy="44.052326"
     inkscape:window-width="1920"
     inkscape:window-height="1010"
     inkscape:window-x="-6"
     inkscape:window-y="-6"
     inkscape:window-maximized="1"
     inkscape:current-layer="g8" /><g
     id="g8"
     inkscape:groupmode="layer"
     inkscape:label="ink_ext_XXXXXX"
     transform="matrix(1.3333333,0,0,-1.3333333,0,88.167729)"><g
       id="g10"
       transform="matrix(0.15031205,0,0,0.15031205,0,-33.269247)"><path
         d="M 1350.41,426.117 V 270.238 c 0,-58.59 -36.41,-101.82 -102.96,-101.82 -65.99,0 -103.53,43.23 -103.53,101.82 v 155.879 h -47.79 V 270.238 c 0,-87.601 60.87,-148.465 151.32,-148.465 89.88,0 151.31,60.864 151.31,148.465 v 155.879 h -48.35"
         style="fill:#3d2f82;fill-opacity:1;fill-rule:nonzero;stroke:none"
         id="path12" /><path
         d="m 803.793,231.793 v 80.539 h 189.988 v -80.539 h 47.779 V 523.371 H 993.781 V 358.977 H 803.793 V 523.371 H 755.441 V 231.793 h 48.352"
         style="fill:#3d2f82;fill-opacity:1;fill-rule:nonzero;stroke:none"
         id="path14" /><path
         d="M 1497.14,231.793 V 400.5 c 0,46.648 36.4,86.465 84.75,86.465 48.93,0 84.76,-39.817 84.76,-86.465 V 231.793 H 1715 V 400.5 c 0,46.648 35.84,86.465 84.76,86.465 48.35,0 84.76,-39.817 84.76,-86.465 V 231.793 h 47.78 V 400.5 c 0,73.383 -57.46,132.539 -132.54,132.539 -47.78,0 -87.03,-23.887 -109.22,-59.726 -21.61,35.839 -60.86,59.726 -108.65,59.726 -75.09,0 -133.1,-59.156 -133.1,-132.539 V 231.793 h 48.35"
         style="fill:#3d2f82;fill-opacity:1;fill-rule:nonzero;stroke:none"
         id="path16" /><path
         d="m 2292.37,533.492 c -111.81,0 -202.45,-90.637 -202.45,-202.445 0,-111.809 90.64,-202.445 202.45,-202.445 111.81,0 202.44,90.636 202.44,202.445 0,111.808 -90.63,202.445 -202.44,202.445 z m 0,-44.238 c 87.23,0 158.2,-70.973 158.2,-158.207 0,-87.234 -70.97,-158.207 -158.2,-158.207 -87.24,0 -158.21,70.973 -158.21,158.207 0,87.234 70.97,158.207 158.21,158.207"
         style="fill:#3d2f82;fill-opacity:1;fill-rule:nonzero;stroke:none"
         id="path18" /><path
         d="m 2039.74,231.793 v 194.324 h -48.35 V 231.793 h 48.35"
         style="fill:#3d2f82;fill-opacity:1;fill-rule:nonzero;stroke:none"
         id="path20" /><path
         d="m 431.609,441.461 c -20.879,0 -37.879,-16.977 -37.879,-37.859 0,-20.883 17,-37.879 37.879,-37.879 20.891,0 37.883,16.996 37.883,37.879 0,20.882 -16.992,37.859 -37.883,37.859"
         style="fill:#3d2f82;fill-opacity:1;fill-rule:nonzero;stroke:none"
         id="path22" /><path
         d="m 431.617,313.23 c -49.816,0 -90.347,40.555 -90.347,90.372 0,49.816 40.531,90.343 90.347,90.343 49.813,0 90.34,-40.527 90.34,-90.343 0,-49.817 -40.527,-90.372 -90.34,-90.372 z m -100.984,-43.746 -40.754,40.754 c 17.641,11.524 31.848,27.91 40.715,47.25 8.875,-19.355 23.097,-35.754 40.765,-47.277 z M 229.559,313.23 c -49.813,0 -90.348,40.555 -90.348,90.372 0,49.816 40.535,90.343 90.348,90.343 49.816,0 90.367,-40.527 90.367,-90.343 0,-49.817 -40.551,-90.372 -90.367,-90.372 z m 309.414,62.547 c 2.324,8.946 3.949,18.161 3.949,27.825 0,9.937 -1.723,19.394 -4.184,28.57 v 100.176 l -11.636,-1.297 c -38.297,-4.223 -76.75,-7.055 -115.266,-8.797 -24.977,10.629 -52.438,16.527 -81.25,16.527 -28.816,0 -56.27,-5.898 -81.254,-16.527 -38.516,1.742 -76.973,4.574 -115.262,8.797 l -11.64,1.297 V 432.145 c -2.453,-9.165 -4.176,-18.618 -4.176,-28.543 0,-9.664 1.625,-18.879 3.949,-27.829 -17.586,-10.043 -31.5936,-31.554 -32.3671,-63.406 -1.6953,-70.5 45.7581,-137.984 45.7581,-137.984 4.113,13.676 12.109,27.762 21,42.301 17.66,-26.864 41.386,-49.309 69.179,-65.598 -3.765,-0.063 -6.937,-2.117 -8.933,-5.102 -2.035,3.028 -5.258,5.145 -9.102,5.145 h -2.965 c -6.207,0 -11.257,-5.191 -11.257,-11.578 v -36.36 c 0,-6.3863 5.05,-11.5738 11.257,-11.5738 h 2.965 c 3.844,0 7.067,2.1133 9.102,5.1406 2.027,-3.0273 5.242,-5.1406 9.086,-5.1406 h 2.996 c 3.828,0 7.051,2.1055 9.086,5.1172 2.027,-3.0117 5.242,-5.1172 9.07,-5.1172 h 2.996 c 6.203,0 11.258,5.1875 11.258,11.5738 v 31.379 c 21.707,-7.691 44.945,-12.093 69.254,-12.093 24.309,0 47.551,4.406 69.258,12.097 v -31.383 c 0,-6.3863 5.051,-11.5738 11.258,-11.5738 h 2.964 c 3.836,0 7.059,2.1055 9.094,5.125 2.035,-3.0195 5.258,-5.125 9.094,-5.125 h 2.996 c 3.836,0 7.051,2.1094 9.078,5.1328 2.027,-3.0234 5.242,-5.1328 9.078,-5.1328 h 2.996 c 6.203,0 11.227,5.1875 11.227,11.5738 v 36.36 c 0,6.387 -5.024,11.578 -11.227,11.578 h -2.996 c -3.836,0 -7.051,-2.113 -9.078,-5.137 -1.996,2.981 -5.168,5.035 -8.93,5.094 27.797,16.293 51.524,38.738 69.18,65.605 8.891,-14.543 16.895,-28.628 21.004,-42.308 0,0 47.461,67.484 45.766,137.984 -0.766,31.856 -14.793,53.367 -32.375,63.41"
         style="fill:#3d2f82;fill-opacity:1;fill-rule:nonzero;stroke:none"
         id="path24" /><path
         d="m 229.559,441.461 c -20.883,0 -37.86,-16.977 -37.86,-37.859 0,-20.883 16.977,-37.879 37.86,-37.879 20.879,0 37.879,16.996 37.879,37.879 0,20.882 -17,37.859 -37.879,37.859"
         style="fill:#3d2f82;fill-opacity:1;fill-rule:nonzero;stroke:none"
         id="path26" /><path
         d="m 330.633,23.8633 c -169.422,0 -306.7697,137.3437 -306.7697,306.7657 0,169.422 137.3477,306.762 306.7697,306.762 169.422,0 306.762,-137.34 306.762,-306.762 0,-169.422 -137.34,-306.7657 -306.762,-306.7657 z M 330.629,661.258 C 148.027,661.258 0,513.23 0,330.629 0,148.027 148.027,0 330.629,0 513.23,0 661.258,148.027 661.258,330.629 c 0,182.601 -148.028,330.629 -330.629,330.629"
         style="fill:#3d2f82;fill-opacity:1;fill-rule:nonzero;stroke:none"
         id="path28" /></g></g></svg>
